<svg width="111" height="39" viewBox="0 0 111 39" fill="none" xmlns="http://www.w3.org/2000/svg">
<path d="M10.0195 5.51758H20.6543C22.9512 5.51758 24.4512 5.89844 25.1543 6.66016C25.8691 7.42187 26.2266 8.36523 26.2266 9.49023C26.2266 10.6855 25.8105 11.834 24.9785 12.9355C24.1582 14.0254 22.916 15.0625 21.252 16.0469C23.291 16.0703 24.8027 16.375 25.7871 16.9609C26.7715 17.5352 27.2637 18.5781 27.2637 20.0898C27.2637 22.1875 26.3555 24.0332 24.5391 25.627C22.7227 27.209 20.6309 28 18.2637 28H10.0195V27.1562C11.0508 27.1445 11.7539 26.9453 12.1289 26.5586C12.5039 26.1719 12.6914 25.4395 12.6914 24.3613V9.13867C12.6914 8.00195 12.4922 7.26367 12.0938 6.92383C11.6953 6.57227 11.0039 6.38477 10.0195 6.36133V5.51758ZM15.9434 7.1875V15.3613H19.3711C20.4609 15.3613 21.3516 15.0742 22.043 14.5C22.7344 13.9258 23.0801 13.041 23.0801 11.8457C23.0801 10.2285 22.6582 8.91016 21.8145 7.89062C20.9824 6.85937 19.9512 6.34375 18.7207 6.34375C17.5605 6.34375 16.6348 6.625 15.9434 7.1875ZM15.9434 16.1699V25.4336C17.1504 26.3828 18.4102 26.8574 19.7227 26.8574C20.9766 26.8574 21.9844 26.4414 22.7461 25.6094C23.5078 24.7656 23.8887 23.6406 23.8887 22.2344C23.8887 20.5352 23.3555 19.0996 22.2891 17.9277C21.2344 16.7559 19.7168 16.1699 17.7363 16.1699H15.9434ZM44.9993 5.51758H52.7512V6.36133C50.5598 6.68945 49.4641 10.3516 49.4641 17.3477C49.4641 19.7734 49.4114 21.5078 49.3059 22.5508C49.2122 23.582 48.8606 24.5547 48.2512 25.4688C47.6419 26.3711 46.7102 27.1035 45.4563 27.666C44.2024 28.2285 42.6966 28.5098 40.9387 28.5098C39.0989 28.5098 37.5286 28.2402 36.2278 27.7012C34.9387 27.1621 33.9485 26.3887 33.2571 25.3809C32.5774 24.3613 32.2376 23.1133 32.2376 21.6367V9.15625C32.2376 8.00781 32.0325 7.26367 31.6223 6.92383C31.2239 6.57227 30.5384 6.38477 29.5657 6.36133V5.51758H38.1614V6.36133C37.1184 6.38477 36.4095 6.58984 36.0345 6.97656C35.6712 7.35156 35.4895 8.07813 35.4895 9.15625V21.4961C35.4895 22.668 35.6712 23.6406 36.0345 24.4141C36.3977 25.1758 37.0657 25.8672 38.0384 26.4883C39.0227 27.0977 40.2415 27.4023 41.6946 27.4023C43.1477 27.4023 44.3723 27.1387 45.3684 26.6113C46.3762 26.084 47.1028 25.2988 47.5481 24.2559C48.0052 23.2012 48.2337 21.6191 48.2337 19.5098C48.2337 14.8809 47.9876 11.5586 47.4954 9.54297C47.0149 7.52734 46.1829 6.4668 44.9993 6.36133V5.51758ZM54.8951 5.51758H63.4908V6.36133C62.4361 6.38477 61.7271 6.58984 61.3638 6.97656C61.0005 7.35156 60.8189 8.07813 60.8189 9.15625V16.2578L65.1607 12.0039C65.8521 11.3242 66.5025 10.5508 67.1119 9.68359C67.733 8.80469 68.0435 8.08984 68.0435 7.53906C68.0435 6.78906 67.44 6.39648 66.233 6.36133V5.51758H74.3189V6.36133C72.7955 6.54883 71.1666 7.48047 69.4322 9.15625L63.7369 14.6582L69.9068 22.9023C72.0162 25.7383 73.8267 27.1562 75.3384 27.1562V28H69.6607L60.8189 16.1348V24.3613C60.8189 26.166 61.7095 27.0977 63.4908 27.1562V28H54.8951V27.1562C55.9498 27.1445 56.6587 26.9453 57.022 26.5586C57.3853 26.1602 57.567 25.4277 57.567 24.3613V9.15625C57.567 8.00781 57.3677 7.26367 56.9693 6.92383C56.5709 6.57227 55.8795 6.38477 54.8951 6.36133V5.51758ZM88.7147 5.00781C90.6834 5.00781 92.4237 5.39453 93.9354 6.16797C95.4471 6.94141 96.7713 8.14844 97.9081 9.78906C99.0448 11.4297 99.6131 13.3984 99.6131 15.6953C99.6131 18.1914 98.9041 20.4766 97.4862 22.5508C96.0799 24.6133 94.4334 26.125 92.5467 27.0859C90.6717 28.0352 88.703 28.5098 86.6405 28.5098C83.6873 28.5098 81.1795 27.4961 79.117 25.4688C77.0545 23.4297 76.0233 20.9043 76.0233 17.8926C76.0233 14.4121 77.3123 11.3945 79.8905 8.83984C82.4686 6.28516 85.41 5.00781 88.7147 5.00781ZM86.5174 6.64258C84.3495 6.64258 82.5506 7.4043 81.1209 8.92773C79.703 10.4395 78.994 12.4434 78.994 14.9395C78.994 18.6074 80.0604 21.5254 82.1932 23.6934C84.3377 25.8613 86.6815 26.9453 89.2245 26.9453C91.2518 26.9453 92.992 26.1836 94.4452 24.6602C95.91 23.1367 96.6424 21.1797 96.6424 18.7891C96.6424 16.5508 96.1561 14.4531 95.1834 12.4961C94.2108 10.5273 92.8866 9.0625 91.2108 8.10156C89.535 7.12891 87.9706 6.64258 86.5174 6.64258Z" fill="white"/>
<line x1="-4.37114e-08" y1="38.5" x2="110" y2="38.5" stroke="white"/>
<line x1="110.5" y1="-2.18557e-08" x2="110.5" y2="39" stroke="white"/>
</svg>
